<svg width="32" height="31" viewBox="0 0 32 31" fill="none" xmlns="http://www.w3.org/2000/svg">
<path d="M16 23C15.8606 23 15.7213 22.9537 15.6113 22.8546L11.1595 18.8441C10.9468 18.6525 10.9468 18.3353 11.1595 18.1437C11.3722 17.9521 11.7242 17.9521 11.9369 18.1437L16 21.8041L20.0631 18.1437C20.2758 17.9521 20.6278 17.9521 20.8405 18.1437C21.0532 18.3353 21.0532 18.6525 20.8405 18.8441L16.3887 22.8546C16.2787 22.9537 16.1393 23 16 23Z" fill="#1E646D"/>
<path d="M16 23C15.6963 23 15.4444 22.7218 15.4444 22.3863V8.61375C15.4444 8.27823 15.6963 8 16 8C16.3037 8 16.5556 8.27823 16.5556 8.61375V22.3863C16.5556 22.7218 16.3037 23 16 23Z" fill="#1E646D"/>
<rect x="1" y="0.5" width="30" height="30" rx="3.5" stroke="#1E646D"/>
</svg>
