<svg width="16" height="16" viewBox="0 0 16 16" fill="none" xmlns="http://www.w3.org/2000/svg">
<path d="M7.9994 14.1667C7.87273 14.1667 7.74607 14.1201 7.64607 14.0201L3.59943 9.9734C3.40609 9.78007 3.40609 9.46007 3.59943 9.26673C3.79276 9.0734 4.11276 9.0734 4.30609 9.26673L7.9994 12.9601L11.6927 9.26673C11.8861 9.0734 12.2061 9.0734 12.3994 9.26673C12.5927 9.46007 12.5927 9.78007 12.3994 9.9734L8.35273 14.0201C8.25273 14.1201 8.12607 14.1667 7.9994 14.1667Z" fill="#292D32"/>
<path d="M8 14.0533C7.72667 14.0533 7.5 13.8267 7.5 13.5533V2.33333C7.5 2.06 7.72667 1.83333 8 1.83333C8.27333 1.83333 8.5 2.06 8.5 2.33333V13.5533C8.5 13.8267 8.27333 14.0533 8 14.0533Z" fill="#292D32"/>
</svg>
