<svg width="25" height="24" viewBox="0 0 25 24" fill="none" xmlns="http://www.w3.org/2000/svg">
<path fill-rule="evenodd" clip-rule="evenodd" d="M0.5 12C0.5 18.6274 5.87258 24 12.5 24C19.1274 24 24.5 18.6274 24.5 12C24.5 5.37258 19.1274 0 12.5 0C5.87258 0 0.5 5.37258 0.5 12ZM11.379 14.3412H13.5021C13.5021 14.1263 13.5078 13.9436 13.5191 13.7931C13.5304 13.6373 13.5587 13.495 13.604 13.366C13.6437 13.2371 13.7116 13.1108 13.8079 12.9872C13.9041 12.8637 14.0372 12.7213 14.207 12.5601C14.4844 12.3291 14.759 12.0927 15.0308 11.8509C15.3082 11.6038 15.5545 11.3432 15.7696 11.0692C15.9848 10.8005 16.1603 10.5104 16.2962 10.1988C16.4321 9.8818 16.5 9.53257 16.5 9.15111C16.5 8.63533 16.4094 8.18133 16.2282 7.78912C16.0471 7.39691 15.7866 7.06649 15.4469 6.79785C15.1016 6.53459 14.6798 6.3358 14.1815 6.20148C13.6833 6.06716 13.12 6 12.4915 6C11.931 6 11.4101 6.06716 10.9289 6.20148C10.4476 6.33042 10.0287 6.52921 9.67197 6.79785C9.31529 7.06649 9.0322 7.40497 8.82272 7.8133C8.61323 8.21625 8.50566 8.69174 8.5 9.23976H10.8694C10.8751 8.99261 10.9232 8.78039 11.0138 8.60309C11.1101 8.42579 11.2346 8.28073 11.3875 8.1679C11.5347 8.05507 11.7045 7.97448 11.897 7.92613C12.0895 7.8724 12.2877 7.84553 12.4915 7.84553C12.7519 7.84553 12.9812 7.8724 13.1794 7.92613C13.3832 7.97985 13.5559 8.06044 13.6975 8.1679C13.8333 8.2861 13.9381 8.43653 14.0117 8.61921C14.0853 8.79651 14.1221 9.00873 14.1221 9.25588C14.1221 9.46004 14.074 9.6642 13.9777 9.86837C13.8815 10.0725 13.7569 10.2713 13.604 10.4647C13.4455 10.6635 13.27 10.857 13.0775 11.045C12.885 11.2277 12.6925 11.4023 12.5 11.5688C12.2339 11.7676 12.0272 11.9557 11.88 12.133C11.7328 12.3049 11.6224 12.4929 11.5488 12.6971C11.4752 12.9066 11.4271 13.1404 11.4045 13.3983C11.3875 13.6561 11.379 13.9704 11.379 14.3412ZM11.396 17.6535C11.1525 17.4171 11.0308 17.1269 11.0308 16.7831C11.0308 16.4285 11.1525 16.133 11.396 15.8966C11.6394 15.6548 11.9763 15.5339 12.4066 15.5339C12.8255 15.5339 13.1596 15.6548 13.4087 15.8966C13.6635 16.133 13.7909 16.4285 13.7909 16.7831C13.7909 17.1269 13.6635 17.4171 13.4087 17.6535C13.1596 17.8845 12.8255 18 12.4066 18C11.9763 18 11.6394 17.8845 11.396 17.6535Z"/>
</svg>
