<svg width="29" height="29" viewBox="0 0 29 29" fill="none" xmlns="http://www.w3.org/2000/svg">
<path fill-rule="evenodd" clip-rule="evenodd" d="M14.5 26.912C21.355 26.912 26.912 21.355 26.912 14.5C26.912 7.64504 21.355 2.088 14.5 2.088C7.64504 2.088 2.088 7.64504 2.088 14.5C2.088 21.355 7.64504 26.912 14.5 26.912ZM14.5 29C22.5081 29 29 22.5081 29 14.5C29 6.49187 22.5081 0 14.5 0C6.49187 0 0 6.49187 0 14.5C0 22.5081 6.49187 29 14.5 29Z" fill="black"/>
<path d="M9.11382 10.8852L11.2102 12.1512L13.5891 11.4329L11.5311 10.1901L9.11382 10.8852Z" fill="black"/>
<path d="M15.9681 10.7146L14.0214 9.80576L11.5311 10.1901L13.5891 11.4329L15.9681 10.7146Z" fill="black"/>
<path d="M9.02042 12.8124L6.88489 11.5262V13.4572L9.02042 12.8124Z" fill="black"/>
<path d="M8.833 14.6227L10.3884 15.5533L12.4573 14.8824L10.9487 13.9738L8.833 14.6227Z" fill="black"/>
<path d="M15.2109 16.5408L14.0214 15.8244L11.9655 16.4969L13.1786 17.2227L15.2109 16.5408Z" fill="black"/>
<path d="M15.1772 18.4184L17.1714 19.6115L19.2299 18.9614L17.1772 17.7251L15.1772 18.4184Z" fill="black"/>
<path d="M15.2109 16.5408L13.1786 17.2227L15.1772 18.4184L17.1772 17.7251L15.2109 16.5408Z" fill="black"/>
<path d="M12.4573 14.8824L10.3884 15.5533L11.9655 16.4969L14.0214 15.8244L12.4573 14.8824Z" fill="black"/>
<path d="M9.02042 12.8124L6.88489 13.4572L8.833 14.6227L10.9487 13.9738L9.02042 12.8124Z" fill="black"/>
<path d="M14.5884 14.1912L12.4573 14.8824L14.0214 15.8244L16.1434 15.1303L14.5884 14.1912Z" fill="black"/>
<path d="M15.9681 10.7146L13.5891 11.4329L15.49 12.5808L17.8564 11.8549L15.9681 10.7146Z" fill="black"/>
<path d="M19.2316 12.6854L17.8564 11.8549L15.49 12.5808L16.91 13.4383L19.2316 12.6854Z" fill="black"/>
<path d="M16.91 13.4383L14.5884 14.1912L16.1434 15.1303L18.458 14.3731L16.91 13.4383Z" fill="black"/>
<path d="M16.1434 15.1303L17.312 15.836L19.606 15.0664L18.458 14.3731L16.1434 15.1303Z" fill="black"/>
<path d="M19.606 15.0664L17.312 15.836L19.2502 17.0064L21.5172 16.2205L19.606 15.0664Z" fill="black"/>
<path d="M21.5172 16.2205L19.2502 17.0064L21.3688 18.2858L23.7118 17.5458L21.5172 16.2205Z" fill="black"/>
<path fill-rule="evenodd" clip-rule="evenodd" d="M9.02042 12.8124L6.88489 11.5262L9.11382 10.8852L11.2102 12.1512L9.02042 12.8124Z" fill="black"/>
</svg>
