<svg width="29" height="31" viewBox="0 0 29 31" fill="none" xmlns="http://www.w3.org/2000/svg">
<g clip-path="url(#clip0_110_215)">
<path fill-rule="evenodd" clip-rule="evenodd" d="M14.4999 2.52833C7.72577 2.52833 2.23422 8.34938 2.23422 15.53C2.23422 22.7106 7.72577 28.5317 14.4999 28.5317C21.2741 28.5317 26.7657 22.7106 26.7657 15.53C26.7657 8.34938 21.2741 2.52833 14.4999 2.52833ZM-0.0456543 15.53C-0.0456543 7.01469 6.46663 0.111664 14.4999 0.111664C22.5333 0.111664 29.0455 7.01469 29.0455 15.53C29.0455 24.0453 22.5333 30.9483 14.4999 30.9483C6.46663 30.9483 -0.0456543 24.0453 -0.0456543 15.53Z" fill="black"/>
<path d="M17.0535 20.6533C16.9623 20.5567 16.9623 20.3633 16.8711 20.17C16.8711 19.9767 16.7799 19.7833 16.7799 19.59C16.5975 19.7833 16.4151 19.88 16.2327 20.0733C16.0503 20.2667 15.7768 20.3633 15.5944 20.46C15.3208 20.5567 15.1384 20.6533 14.7736 20.75C14.5 20.8467 14.1353 20.8467 13.8617 20.8467C13.3145 20.8467 12.8585 20.75 12.4025 20.5567C11.9466 20.3633 11.5818 20.17 11.217 19.88C10.8522 19.59 10.6698 19.2033 10.4875 18.8167C10.3051 18.43 10.2139 17.9467 10.2139 17.4633C10.2139 16.3033 10.6698 15.3367 11.4906 14.7567C12.3114 14.08 13.5881 13.79 15.2296 13.79H16.7799V13.1133C16.7799 12.5333 16.5975 12.1467 16.3239 11.8567C15.9592 11.5667 15.5032 11.3733 14.8648 11.3733C14.3176 11.3733 13.9529 11.47 13.6793 11.76C13.4057 12.05 13.3145 12.34 13.3145 12.7267H10.5786C10.5786 12.2433 10.6698 11.76 10.8522 11.3733C11.0346 10.9867 11.3082 10.6 11.7642 10.2133C12.129 9.92334 12.5849 9.63334 13.1321 9.44001C13.6793 9.24668 14.3176 9.15001 15.0472 9.15001C15.6856 9.15001 16.2327 9.24668 16.7799 9.44001C17.3271 9.63334 17.7831 9.82668 18.239 10.2133C18.6038 10.5033 18.9686 10.9867 19.151 11.47C19.3334 11.9533 19.5158 12.5333 19.5158 13.21V18.0433C19.5158 18.6233 19.5158 19.1067 19.607 19.4933C19.6981 19.88 19.7893 20.2667 19.8805 20.46V20.6533H17.0535ZM14.4088 18.6233C14.6824 18.6233 14.956 18.6233 15.1384 18.5267C15.412 18.43 15.5944 18.3333 15.7768 18.2367C15.9592 18.14 16.1415 18.0433 16.2327 17.85C16.3239 17.7533 16.5063 17.56 16.5975 17.4633V15.53H15.2296C14.7736 15.53 14.4088 15.53 14.1353 15.6267C13.8617 15.7233 13.5881 15.82 13.4057 16.0133C13.2233 16.2067 13.0409 16.3033 12.9497 16.5933C12.8585 16.7867 12.8585 17.0767 12.8585 17.27C12.8585 17.6567 12.9497 17.9467 13.2233 18.2367C13.4969 18.5267 13.9529 18.6233 14.4088 18.6233Z" fill="black"/>
</g>
<defs>
<clipPath id="clip0_110_215">
<rect width="29" height="30.74" fill="white" transform="translate(0 0.160004)"/>
</clipPath>
</defs>
</svg>
