<?xml version="1.0" encoding="utf-8"?>
<!-- Generator: Adobe Illustrator 25.2.1, SVG Export Plug-In . SVG Version: 6.00 Build 0)  -->
<svg version="1.1" id="Layer_1" xmlns="http://www.w3.org/2000/svg" xmlns:xlink="http://www.w3.org/1999/xlink" x="0px" y="0px"
	 viewBox="0 0 1000 1000" style="enable-background:new 0 0 1000 1000;" xml:space="preserve">
  <style>
      path {
        fill: #000000;
      }
      @media (prefers-color-scheme: dark) {
        path {
          fill: #ffffff;
        }
      }
  </style>
  <linearGradient id="SVGID_1_" gradientUnits="userSpaceOnUse" x1="0" y1="0" x2="6.123234e-17" y2="-1">
	<stop  offset="0" style="stop-color:#656565"/>
	<stop  offset="0.618" style="stop-color:#1B1B1B"/>
	<stop  offset="0.6292" style="stop-color:#545454"/>
	<stop  offset="0.9831" style="stop-color:#3E3E3E"/>
  </linearGradient>
  <g>
        <path fill="#000000" d="M46.022,943c0-295.69,0-590.87,0-886.382c295.531,0,590.711,0,886.382,0c0,214.613,0,429.173,0,643.686
            c-36.399-10.423-34.238-10.328-70.761-0.376c0-190.603,0-380.984,0-571.756c-248.351,0-495.873,0-743.938,0
            c0,247.584,0,495.271,0,743.403c247.633,0,495.32,0,743.546,0c0-8.784,0-17.35,0-27.297c24.211,10.483,47.742,10.06,71.389-0.476
            c0,33.441,0,66.064,0,99.198C637.205,943,341.859,943,46.022,943z"/>
        <path fill="#000000" d="M789.7,824.042c-52.245,0-103.533,0-154.896,0c-0.266-0.925-0.587-1.557-0.612-2.201
            c-0.594-15.477-0.648-15.67,14.378-20.383c11.317-3.55,22.813-6.525,34.844-9.93c-13.633-36.647-27.248-73.243-40.966-110.119
            c-15.667,0-31.066,0-46.465,0c-30.831,0-61.663-0.081-92.492,0.163c-2.327,0.018-6.054,1.829-6.744,3.691
            c-13.037,35.179-25.713,70.492-38.626,106.221c9.733,2.367,19.143,4.593,28.516,6.97c3.158,0.801,6.228,1.955,9.32,3.001
            c15.584,5.269,15.582,5.275,13.198,22.531c-44.423,0-88.899,0-133.503,0c-0.224-0.84-0.528-1.476-0.547-2.121
            c-0.462-15.786-0.496-15.898,14.675-21.232c7.472-2.627,15.029-5.135,22.723-6.96c4.669-1.108,6.906-3.434,8.578-7.797
            c49.113-128.22,98.348-256.393,147.618-384.553c1.131-2.942,2.443-7.616,4.445-8.07c5.101-1.158,10.688-0.763,15.973-0.11
            c1.308,0.162,2.451,3.573,3.253,5.652c24.232,62.852,48.427,125.719,72.594,188.596c25.339,65.926,50.718,131.838,75.827,197.852
            c2.028,5.331,4.947,7.336,10.287,8.543c10.422,2.356,20.628,5.695,30.877,8.784c5.732,1.727,9.112,5.081,7.84,11.786
            C789.242,817.253,789.7,820.342,789.7,824.042z M511.084,648.753c40.039,0,80.061,0,120.389,0
            c-19.393-59.927-48.847-115.987-58.051-177.557C552.7,530.218,531.898,589.469,511.084,648.753z"/>
        <path fill="#000000" d="M953.88,773.984c-0.025,31.727-25.74,57.385-57.488,57.36c-31.721-0.025-57.385-25.744-57.364-57.488
            c0.021-31.711,25.758-57.392,57.491-57.367C928.229,716.515,953.904,742.249,953.88,773.984z"/>
    </g>
</svg>