<svg width="45" height="45" viewBox="0 0 45 45" xmlns="http://www.w3.org/2000/svg">
<style>
      .path-fill {
        fill: #000000;
      }
      @media (prefers-color-scheme: dark) {
        .path-fill {
          fill: #ffffff;
        }
      }
  </style>
<path class="path-fill" fill-rule="evenodd" clip-rule="evenodd" d="M22.5 41.76C33.137 41.76 41.76 33.137 41.76 22.5C41.76 11.863 33.137 3.24 22.5 3.24C11.863 3.24 3.24 11.863 3.24 22.5C3.24 33.137 11.863 41.76 22.5 41.76ZM22.5 45C34.9264 45 45 34.9264 45 22.5C45 10.0736 34.9264 0 22.5 0C10.0736 0 0 10.0736 0 22.5C0 34.9264 10.0736 45 22.5 45Z" />
<path class="path-fill" d="M14.1422 16.8909L17.3952 18.8553L21.0866 17.7407L17.8931 15.8122L14.1422 16.8909Z" />
<path class="path-fill" d="M24.778 16.6261L21.7573 15.2158L17.8931 15.8122L21.0866 17.7407L24.778 16.6261Z" />
<path class="path-fill" d="M13.9972 19.8813L10.6835 17.8854V20.8818L13.9972 19.8813Z" />
<path class="path-fill" d="M13.7064 22.6904L16.12 24.1344L19.3303 23.0933L16.9894 21.6834L13.7064 22.6904Z" />
<path class="path-fill" d="M23.6032 25.6668L21.7573 24.5551L18.5672 25.5986L20.4496 26.7248L23.6032 25.6668Z" />
<path class="path-fill" d="M23.5509 28.5803L26.6453 30.4316L29.8395 29.4228L26.6543 27.5044L23.5509 28.5803Z" />
<path class="path-fill" d="M23.6032 25.6668L20.4496 26.7248L23.5509 28.5803L26.6543 27.5044L23.6032 25.6668Z" />
<path class="path-fill" d="M19.3303 23.0933L16.12 24.1344L18.5672 25.5986L21.7573 24.5551L19.3303 23.0933Z" />
<path class="path-fill" d="M13.9972 19.8813L10.6835 20.8818L13.7064 22.6904L16.9894 21.6834L13.9972 19.8813Z" />
<path class="path-fill" d="M22.6372 22.0208L19.3303 23.0933L21.7573 24.5551L25.0501 23.478L22.6372 22.0208Z" />
<path class="path-fill" d="M24.778 16.6261L21.0866 17.7407L24.0362 19.5219L27.7082 18.3956L24.778 16.6261Z" />
<path class="path-fill" d="M29.8422 19.6842L27.7082 18.3956L24.0362 19.5219L26.2397 20.8525L29.8422 19.6842Z" />
<path class="path-fill" d="M26.2397 20.8525L22.6372 22.0208L25.0501 23.478L28.6418 22.3032L26.2397 20.8525Z" />
<path class="path-fill" d="M25.0501 23.478L26.8635 24.573L30.4231 23.3788L28.6418 22.3032L25.0501 23.478Z" />
<path class="path-fill" d="M30.4231 23.3788L26.8635 24.573L29.8711 26.3893L33.3888 25.1698L30.4231 23.3788Z" />
<path class="path-fill" d="M33.3888 25.1698L29.8711 26.3893L33.1586 28.3745L36.7942 27.2263L33.3888 25.1698Z" />
<path class="path-fill" fill-rule="evenodd" clip-rule="evenodd" d="M13.9972 19.8813L10.6835 17.8854L14.1422 16.8909L17.3952 18.8553L13.9972 19.8813Z" />
</svg>
